<svg xmlns="http://www.w3.org/2000/svg" width="666" height="492" viewBox="0 0 666 492">
    <defs>
        <linearGradient id="o59vjihhda" x1="49.997%" x2="49.997%" y1="99.999%" y2=".008%">
            <stop offset="0%" stop-color="gray" stop-opacity=".25"/>
            <stop offset="54%" stop-color="gray" stop-opacity=".12"/>
            <stop offset="100%" stop-color="gray" stop-opacity=".1"/>
        </linearGradient>
        <linearGradient id="g51p630orb" x1="49.978%" x2="49.978%" y1="99.992%" y2="-.014%">
            <stop offset="0%" stop-color="gray" stop-opacity=".25"/>
            <stop offset="54%" stop-color="gray" stop-opacity=".12"/>
            <stop offset="100%" stop-color="gray" stop-opacity=".1"/>
        </linearGradient>
    </defs>
    <g fill="none" fill-rule="evenodd">
        <g>
            <g transform="translate(-916 -164) translate(917 164)">
                <path fill="#6C63FF" fill-rule="nonzero" d="M43.196 192H101v78.921H47.423c-.137.816-.274 1.626-.428 2.442H101V337c-.091 0-.182-.068-.268-.103-1.519-.604-3.038-1.245-4.557-1.922-.324-.149-.643-.303-.974-.445-1.519-.72-3.038-1.48-4.556-2.283-.53-.28-1.06-.57-1.578-.867-8.433-4.713-16.097-10.689-22.728-17.72-.199-.189-.381-.394-.57-.57-.922-1.005-1.828-2.02-2.705-3.059-.33-.382-.65-.77-.974-1.141-1.037-1.267-2.04-2.579-3.007-3.897-.149-.2-.285-.393-.428-.57-3.966-5.498-7.256-11.456-9.797-17.744-.08-.188-.154-.393-.228-.57-.786-1.997-1.498-4.022-2.113-6.088-.262-.861-.518-1.711-.735-2.607-.08-.257-.142-.52-.21-.776C42.37 264.001 42 250.868 42 237.796v-4.564c.046-5.336.108-10.667.188-15.992.03-1.37.059-2.744.085-4.125.08-3.495.194-6.998.342-10.509.034-.97.08-1.945.131-2.91.023-.559.051-1.118.086-1.677.102-2.02.224-4.026.364-6.019zM100 104H69c5.041-8.05 10.547-15.786 16.488-23.167C90.1 75.055 94.955 69.425 100 64v40zM100 107v84H43c0-.243.034-.49.056-.733.051-.664.102-1.323.158-1.987.056-.773.13-1.547.203-2.31.073-.761.146-1.685.237-2.522.09-.838.163-1.686.253-2.524.09-.837.18-1.674.282-2.506.101-.831.191-1.674.304-2.505.085-.688.17-1.38.265-2.073.13-.976.265-1.952.406-2.922 0-.15.045-.294.067-.439 1.03-7.1 2.43-14.139 4.192-21.086 1.852-7.287 4.215-14.427 7.072-21.364 3.036-7.269 6.591-14.298 10.638-21.029H100zM115 192.56v78.76h123.482v-78.76H115zm0 81.197V341.4c.706.142 1.401.284 2.102.404.94.182 1.886.347 2.848.49l.57.08c.376.062.758.113 1.14.159.95.136 1.902.239 2.848.33.444.045.906.08 1.356.12l1.1.08c.597.045 1.19.079 1.782.102.365 0 .73.028 1.1.04.37.01.57 0 .866 0h3.167c.49 0 .98 0 1.464-.046h.028c.342 0 .678 0 1.02-.04.097.006.194.006.29 0 .286 0 .57 0 .844-.034.064-.005.129-.005.193 0 .633-.04 1.27-.091 1.915-.148.643-.057 1.253-.125 1.897-.194l1.293-.16c5.284-.738 10.51-1.85 15.637-3.324 11.525-3.211 22.787-7.704 34.306-10.99 14.88-4.24 31.332-6.33 45.71-1.166v-53.345H115zm123.482-168.892V.01c-13.518-.149-27 1.43-40.116 4.697-31.27 7.852-59.349 24.881-83.366 46.631v53.521h6.215v2.431H115v82.833h123.482V107.29H146.64v-2.436l91.842.01zm158.642-35.42c-7.736-.274-15.427-2.717-22.388-6.503-13.296-7.225-23.926-18.396-35.798-27.814C314.27 15.502 283.68 3.654 252.296.716v104.149h176.262l.439-.461-31.873-34.96zm16.059-2.847l17.027 18.68V61.685c-5.73.723-10.721 2.403-17.027 4.89v.024zm17.027 291.597v-84.438H393.9c-.092-.358-.194-.723-.308-1.087.108.364.205.729.302 1.087H252.296v61.06c1.345.996 2.672 2.05 3.988 3.108 1.42 1.162 2.831 2.337 4.233 3.525l1.412 1.167c.678.57 1.368 1.139 2.051 1.68 1.371 1.104 2.752 2.198 4.142 3.28.695.546 1.394 1.083 2.096 1.61 11.127 8.5 22.863 16.171 35.115 22.952 2.746 1.532 5.52 3.006 8.311 4.447 1.857.956 3.728 1.894 5.611 2.812 2.826 1.378 5.674 2.707 8.546 3.986 26.47 11.876 54.46 20.023 83.171 24.21 6.373.937 12.774 1.677 19.204 2.22v-51.63h.57l-.536.011zM252.296 107.29v82.833H430.21V107.29H252.296zm0 85.258v78.772H430.21v-78.76l-177.914-.012zM444.02 61.57v26.362l21.727-23.84c-7.2-1.188-14.443-2.029-21.727-2.522zm0 130.99v78.76h173.038v-78.76H444.019zM616.447 364.44l.61-90.684H444.019v136.974c11.146.463 22.308.328 33.44-.404h.193c5.317-.342 10.61-.828 15.877-1.458h.12c28.11-3.27 55.596-10.608 81.594-21.784m75.196-181.59c-.657-1.518-1.33-3.036-2.022-4.554-1.288-2.847-2.643-5.614-4.045-8.376h-13.501v78.755H665c-.028-22.307-5.68-45.082-14.56-65.824zm-19.568 68.262v78.004c9.61-9.207 17.74-19.746 23.584-31.793 7.036-14.514 10.254-30.217 10.522-46.216l-34.106.005zm0-104.149v20.497h12.237c-3.71-7.046-7.794-13.888-12.237-20.497zm-117.352-92.58c-.9-.347-1.806-.694-2.712-1.024-9.55-3.528-19.31-6.46-29.224-8.78l-33.257 36.474-.65.7.428.461H566.47c-16.487-11.338-34.261-20.68-52.951-27.83zm56.426 30.262h-123.5l-2.426 2.215v80.618H617.056v-39.06c-13.722-16.585-29.56-31.302-47.111-43.773z" opacity=".1"/>
                <path fill="#6C63FF" fill-rule="nonzero" d="M100 149v41H43c0-.239.034-.483.056-.722.051-.654.102-1.303.158-1.957.056-.762.13-1.524.203-2.275.073-.75.146-1.66.237-2.485.09-.825.163-1.66.253-2.485s.18-1.65.282-2.469c.101-.819.191-1.649.304-2.468.085-.677.17-1.36.265-2.042.13-.96.265-1.922.406-2.878 0-.147.045-.29.067-.432 1.03-6.994 2.43-13.927 4.192-20.77L100 149zM43.196 192H101v78.921H47.423c-.137.816-.274 1.626-.428 2.442H101V337c-.091 0-.182-.068-.268-.103-1.519-.604-3.038-1.245-4.557-1.922-.324-.149-.643-.303-.974-.445-1.519-.72-3.038-1.48-4.556-2.283-.53-.28-1.06-.57-1.578-.867-8.433-4.713-16.097-10.689-22.728-17.72-.199-.189-.381-.394-.57-.57-.922-1.005-1.828-2.02-2.705-3.059-.33-.382-.65-.77-.974-1.141-1.037-1.267-2.04-2.579-3.007-3.897-.149-.2-.285-.393-.428-.57-3.966-5.498-7.256-11.456-9.797-17.744-.08-.188-.154-.393-.228-.57-.786-1.997-1.498-4.022-2.113-6.088-.262-.861-.518-1.711-.735-2.607-.08-.257-.142-.52-.21-.776C42.37 264.001 42 250.868 42 237.796v-4.564c.046-5.336.108-10.667.188-15.992.03-1.37.059-2.744.085-4.125.08-3.495.194-6.998.342-10.509.034-.97.08-1.945.131-2.91.023-.559.051-1.118.086-1.677.102-2.02.224-4.026.364-6.019zM158 119.282L158 191 114 191 114 119.282 120.273 119.282 120.273 95 146.024 95 146.024 119.282zM114 194H158V272H114zM114 274h44v66c-5.19 1.487-10.48 2.605-15.83 3.346-.438.063-.87.115-1.309.16-.646.075-1.286.144-1.926.201l-1.932.155h-.196l-.853.046h-.294c-.346 0-.686.04-1.032.046h-.03c-.495 0-.985.035-1.481.046h-4.083c-.375 0-.744 0-1.119-.046-.592-.023-1.192-.057-1.8-.103l-1.112-.08c-.461-.035-.923-.08-1.378-.127-.97-.084-1.93-.193-2.884-.327l-1.153-.16-.577-.081c-.963-.143-1.92-.304-2.883-.488-.715-.126-1.419-.27-2.128-.419V274zM393 112H430V191H393zM430 194L430 272 252 272 252 238.356 346.811 238.356 346.811 258.203 394.133 258.203 394.133 194zM431 359.055c-.187 0-.375 0-.568-.035V411c-6.405-.53-12.787-1.273-19.147-2.228-28.644-4.21-56.57-12.402-82.983-24.343-7.625-3.468-15.094-7.246-22.408-11.336-12.214-6.825-23.917-14.541-35.014-23.088-2.796-2.154-5.55-4.355-8.261-6.605-1.88-1.569-3.744-3.173-5.642-4.725-1.307-1.071-2.63-2.13-3.977-3.139v-61.442h141.218c-.102-.367-.193-.727-.295-1.094.108.367.21.727.3 1.094h36.215v84.92c.187.006.375.023.562.04zM523 105h-24v-7.289h10.753V76c.933.336 1.862.679 2.787 1.03V97.71h10.454L523 105zM579.994 190.998h-114.71c.011.002.023.002.034 0H444v-80.459h6.029v59.471h27.546v-35.22h22.766V107h23.364v27.807h22.754v35.22H580l-.006 20.971zM444 192v78.963h135.928V192H444zm172.806 171.905L617 301.4h-37.072v-27.97H444V410.73c11.143.465 22.304.33 33.432-.405h.194c5.316-.343 10.607-.83 15.873-1.461h.12c28.104-3.28 55.584-10.636 81.576-21.84M633.385 275H665c-.273 15.787-3.476 31.292-10.49 45.612-5.826 11.898-13.93 22.3-23.51 31.388v-49.456h2.385V275zM665 272h-31v-66h16.777c8.675 20.797 14.195 43.633 14.223 66z" opacity=".1"/>
                <path fill="#6C63FF" fill-rule="nonzero" d="M411 132H430V157H411zM411 185H430V190H411zM411 192H430V209H411zM411 236H430V261H411zM411 288H430V313H411zM429.453 358.186c.18 0 .36 0 .547.04-.18 0-.361 0-.547-.034V364H411v-25h18.453v19.186zM430 391v19c-6.358-.522-12.691-1.252-19-2.19V391h19zM251 270H334V272H251zM251 274H334V282H251zM251 304H334V315H251zM334 338v11h-64.116c-2.791-2.084-5.541-4.223-8.25-6.418-1.884-1.518-3.745-3.075-5.634-4.582h78zM334 373v11h-6.967c-7.837-3.358-15.515-7.017-23.033-10.978l30-.022zM477 201H494V217H477zM126 125H143V141H126zM126 163H143V179H126zM126 200H143V216H126zM126 239H143V255H126zM126 276H143V292H126zM126 313H143V329H126zM539 201H556V217H539zM477 241H494V257H477zM539 241H556V257H539zM477 280H494V296H477zM539 280H556V296H539zM477 320H494V336H477zM539 320H556V336H539zM477 360H494V376H477zM539 360H556V376H539zM477 411L477 401 494 401 494 409.577zM45 171v10h56v-10H45zm5.576 9.373h-4.604v-8.74h4.604v8.74zm5.576 0h-4.604v-8.74h4.604v8.74zm5.564 0h-4.603v-8.74h4.603v8.74zm5.576 0h-4.604v-8.74h4.604v8.74zm5.57 0h-4.603v-8.74h4.603v8.74zm5.576 0h-4.604v-8.74h4.604v8.74zm5.576 0H79.41v-8.74h4.604v8.74zm5.57 0H84.98v-8.74h4.604v8.74zm5.57 0H90.55v-8.74h4.604v8.74zm5.576 0h-4.604v-8.74h4.604v8.74zM45 197v10h56v-10H45zm5.576 9.373h-4.604v-8.74h4.604v8.74zm5.576 0h-4.604v-8.74h4.604v8.74zm5.564 0h-4.603v-8.74h4.603v8.74zm5.576 0h-4.604v-8.74h4.604v8.74zm5.57 0h-4.603v-8.74h4.603v8.74zm5.576 0h-4.604v-8.74h4.604v8.74zm5.576 0H79.41v-8.74h4.604v8.74zm5.57 0H84.98v-8.74h4.604v8.74zm5.57 0H90.55v-8.74h4.604v8.74zm5.576 0h-4.604v-8.74h4.604v8.74zM45 224v10h56v-10H45zm5.576 9.367h-4.604v-8.746h4.604v8.746zm5.576 0h-4.604v-8.746h4.604v8.746zm5.564 0h-4.603v-8.746h4.603v8.746zm5.576 0h-4.604v-8.746h4.604v8.746zm5.57 0h-4.603v-8.746h4.603v8.746zm5.576 0h-4.604v-8.746h4.604v8.746zm5.576 0H79.41v-8.746h4.604v8.746zm5.57 0H84.98v-8.746h4.604v8.746zm5.57 0H90.55v-8.746h4.604v8.746zm5.576 0h-4.604v-8.746h4.604v8.746zM45 251v10h56v-10H45zm5.576 9.373h-4.604v-8.758h4.604v8.758zm5.576 0h-4.604v-8.758h4.604v8.758zm5.564 0h-4.603v-8.758h4.603v8.758zm5.576 0h-4.604v-8.758h4.604v8.758zm5.57 0h-4.603v-8.758h4.603v8.758zm5.576 0h-4.604v-8.758h4.604v8.758zm5.576 0H79.41v-8.758h4.604v8.758zm5.57 0H84.98v-8.758h4.604v8.758zm5.57 0H90.55v-8.758h4.604v8.758zm5.576 0h-4.604v-8.758h4.604v8.758zM45 278c.22.948.48 1.884.746 2.814v-2.18h4.623v8.75h-2.48c.07.21.145.425.226.616H101v-10H45zm10.982 9.384h-4.624v-8.75h4.624v8.75zm5.589 0h-4.624v-8.75h4.624v8.75zm5.6 0h-4.624v-8.75h4.624v8.75zm5.595 0h-4.624v-8.75h4.624v8.75zm5.6 0h-4.623v-8.75h4.623v8.75zm5.601 0h-4.624v-8.75h4.624v8.75zm5.595 0h-4.624v-8.75h4.624v8.75zm5.595 0h-4.624v-8.75h4.624v8.75zm5.6 0h-4.624v-8.75h4.624v8.75zM58 305c.15.196.29.417.434.613h3.062v4.19l.99 1.228v-5.442h4.63v8.798h-1.904c.185.202.365.417.579.613H101v-10H58zm14.737 9.387h-4.63v-8.761h4.63v8.76zm5.608 0h-4.63v-8.761h4.63v8.76zm5.609 0h-4.63v-8.761h4.63v8.76zm5.603 0h-4.63v-8.761h4.63v8.76zm5.603 0h-4.63v-8.761h4.63v8.76zm5.608 0h-4.63v-8.761h4.63v8.76zM89 332c.527.264 1.06.508 1.592.767v-.254h4.583v2.292c.332.127.647.264.973.396v-2.688h4.583v4.4c.087.035.177.064.269.087v-5H89zM430.424 359h.57-.57zm-36.664-85.732c.108.365.205.73.302 1.09-.086-.36-.188-.725-.302-1.09zM121 105.01v2.432h25.483V105l-25.483.011zM430.43 359h.57-.57zm-36.67-85.732c.108.365.205.73.302 1.09-.086-.36-.188-.725-.302-1.09zM430.424 359h.57-.57zm-36.664-85.732c.108.365.205.73.302 1.09-.086-.36-.188-.725-.302-1.09z" opacity=".1"/>
                <ellipse cx="500.5" cy="483.5" fill="#6C63FF" fill-rule="nonzero" opacity=".1" rx="55.5" ry="8.5"/>
                <ellipse cx="249.5" cy="473.5" fill="#6C63FF" fill-rule="nonzero" opacity=".1" rx="55.5" ry="8.5"/>
                <path fill="url(#o59vjihhda)" fill-rule="nonzero" d="M313.705 238.056c-.014-.057-.043-.108-.085-.148-.847-.838-11.64-16.14-11.64-16.14s-.568-1.708-1.489-3.93c.295-.382.517-.817.654-1.28.05-.197.085-.397.107-.599 0-.062.046-.114.063-.176.197-.773.178-1.585-.057-2.347-.063.196-.14.386-.233.57-.213-.664-.5-1.301-.852-1.902-1.431-2.472-3.477-4.556-4.982-6.965-2.28-3.743-3.186-8.166-2.562-12.506v.672c.057-.861.17-1.717.34-2.563.238-.963.556-1.904.95-2.813 1.352-3.104 3.539-5.81 4.868-8.924.446-1.051.785-2.145 1.011-3.264.469-1.869.64-3.8.506-5.723 0 .455-.074.911-.142 1.36-.144-4.622-2.006-9.023-5.22-12.34-4.642-4.676-11.306-6.492-17.68-7.45-2.678-.312-5.236-1.291-7.442-2.847-2.448-1.588-5.612-1.97-8.476-1.623-3.29.357-6.348 1.873-8.629 4.277-3.028 3.338-4.34 8.064-7.873 10.878-2.142 1.708-4.858 2.505-7.351 3.667-2.494 1.162-4.852 2.848-5.653 5.342v-.051.142l-.034.091c-.83 2.95.773 5.952 1.608 8.896.869 3.047.926 6.264.971 9.414.063 3.85.12 7.705.057 11.56-.029 1.515-.08 3.047-.193 4.556-1.345.408-2.65.934-3.903 1.572-1.273.832-6.033 5.986-6.033 5.986L215 249.11l.125.142-.125.484.472-.108c1.317 1.424 5.254 5.478 9.504 8.007l.397 6.993s.477 7.017 6.914 9.915c.148 2.432.608 12.307-1.523 16.22-1.475 2.858-2.169 6.057-2.01 9.271 0 0 .744 5.934-.103 9.055-.494 2.086-.531 4.254-.108 6.356v1.873c0 6.316.074 26.556 0 28.845-.108 2.706 0 42.713 0 42.713s-.528 19.995-2.221 25.41c-1.693 5.417-1.267 23.35-1.267 23.35s-1.062 21.362 2.693 25.576c0 .188-.034.382-.04.57v.267c-.045 1.623.267 3.349 1.659 3.879 2.84 1.093 6.595 4.373 7.305 5.313.71.94 4.84 3.28 10.226 2.654 3.374-.38 6.769-.536 10.163-.467 0 0 2.125-.387 1.437-3.035-.443-1.652-2.102-4.192-3.283-5.86.216.056.426.102.625.142l.204.04h.16c.086.005.174.005.26 0h.114c.106.008.212.008.318 0 1.426-.137 6.744 2.346 7.692 3.986.949 1.64 4.295 2.887 6.817 3.2 1.5.183 5.283-.125 8.46-.535 1.598-.165 3.182-.455 4.737-.865.75-.285.909-1.196.693-2.221-.255-1.302-.95-2.477-1.966-3.326-.92-.655-2.136-2.38-3.033-3.793l-.239-.382c1.585-1.514 4.448-6.47 5.317-7.494 1.057-1.247-1.704-46.858-1.704-46.858V385.56l4.232-21.64 2.96-11.453 2.54-17.29s4.442-20.195 3.073-22.176c0-.04-1.136-20.833-2.33-25.827-.516-2.227-.386-7.238-.079-12.113.655-.652.876-1.623.568-2.495-.084-.292-.195-.576-.33-.848v-.262c2.455-1.132 5.02-2.006 7.653-2.609 4.232-.831 3.176-3.018 3.176-3.018s.954-1.874 1.584-3.018c.631-1.145.108-11.248 0-12.08-.04-.335-.3-2.192-.602-4.299 1.358-.968 3.125-2.17 5.05-3.309 3.665-2.175 2.841-4.47 2.54-5.068zM258.487 382.44s-3.176 8.121-1.903 10.2c1.272 2.079-.21 9.795-.21 9.795l-1.063 11.453s-2.96 21.242-1.903 26.237c.83 3.918 1.136 15.621 1.233 20.502-.073.028-.143.062-.21.102l-.142.074c.488-1.919.284-5.803-2.142-13.616l-.204-32.274s-.375-37.28 2.562-41.448c2.937-4.169 3.976-11.247 3.976-11.247s-.636 10.21-1.05 12.916c-.415 2.705 1.056 7.306 1.056 7.306zm-5.914 80.22c-.028.068-.062.137-.085.2l-.16-.206c.082.008.164.01.245.006z"/>
                <path fill="#FFF" fill-rule="nonzero" d="M284.247 475.543c-1.604.631-10.302 1.706-12.733 1.405-2.431-.302-5.65-1.564-6.566-3.214-.916-1.65-6.05-4.14-7.427-3.981-.564.017-1.127-.064-1.665-.24-.95-.294-1.877-.659-2.775-1.091-.126-.717-.105-1.453.06-2.162.033-.143.074-.283.123-.42.324-.934.994-1.698 1.865-2.128l.2-.097c.385-.17.787-.296 1.199-.375 4.362-.859 22.363.864 22.363.864s.505.928 1.199 2.077c.866 1.422 2.042 3.156 2.93 3.81.984.862 1.652 2.042 1.893 3.345.211 1.007.056 1.928-.666 2.207z"/>
                <path fill="#000" fill-rule="nonzero" d="M284.24 475.59c-1.604.611-10.296 1.651-12.728 1.36-2.43-.292-5.65-1.519-6.571-3.109-.922-1.59-6.045-4.005-7.421-3.851-1.377.154-4.44-1.287-4.44-1.287s-.478-2.201.91-3.703l2.775 1.953s7.426 2.283 8.803 4.401c1.376 2.118 3.885 3.301 7.51 3.516 2.708.176 8.93-.87 11.844-1.392.195.952.045 1.843-.682 2.113z" opacity=".1"/>
                <path fill="#FFF" fill-rule="nonzero" d="M257.488 478.416c-3.291-.066-6.583.093-9.853.478-5.238.633-9.239-1.727-9.936-2.7-.697-.972-4.307-4.257-7.08-5.408-1.355-.541-1.673-2.302-1.612-3.948v-.27c.052-1.043.201-2.078.446-3.09l21.708-.478 1.88 2.63.29.403 1.144 1.605s.519.702 1.2 1.726c1.149 1.727 2.755 4.276 3.185 5.962.686 2.699-1.372 3.09-1.372 3.09z"/>
                <path fill="#000" fill-rule="nonzero" d="M257.466 478.423c-3.289-.065-6.577.093-9.845.472-5.23.625-9.232-1.705-9.923-2.665-.691-.96-4.31-4.234-7.08-5.331-1.354-.535-1.672-2.274-1.61-3.899 1.549.37 4.804 1.313 6.081 2.955 1.672 2.194 4.666 5.882 8.92 6.115 3.433.188 11.795-.437 14.862-.687.657 2.654-1.405 3.04-1.405 3.04z" opacity=".1"/>
                <path fill="#000" fill-rule="nonzero" d="M256 463.475c-.261 1.823-1.07 2.314-1.65 2.423-.142.026-.288.026-.43 0-.076-.005-.152-.016-.227-.033 0 0-20.3 4.213-24.402.802-.105-.087-.202-.182-.291-.283.054-.99.21-1.97.465-2.931l22.607-.453 1.958 2.494c.34-.895 1.041-1.629 1.953-2.041l.017.022zM281 465.469c-.437.376-.8.59-1.03.516-1.03-.323-9.476-1.448-12.159-.481-2.682.967-11.76.158-11.76.158s0-.84-.051-2.189c.388-.13.794-.228 1.21-.288 4.402-.661 22.564.665 22.564.665s.532.735 1.226 1.619z" opacity=".1"/>
                <path fill="#6C63FF" fill-rule="nonzero" d="M294.71 336.382l-2.513 17.41-2.922 11.538-4.185 21.81v23.089s2.718 45.936 1.672 47.19c-1.046 1.254-5.02 8.397-6.067 7.981-1.046-.416-9.62-1.887-12.344-.633-2.723 1.255-11.94.211-11.94.211s-.21-17.826-1.256-22.86c-1.047-5.033 1.882-26.428 1.882-26.428l1.046-11.533s1.467-7.764.21-9.862c-1.256-2.098 1.882-10.261 1.882-10.261s-1.461-4.623-1.04-7.348c.42-2.725 1.04-13.004 1.04-13.004s-1.04 7.138-3.946 11.328c-2.905 4.19-2.536 41.74-2.536 41.74l.205 32.494c5.237 17.205 0 15.523 0 15.523s-19.866 4.407-23.88.838c-4.014-3.568-2.866-26.03-2.866-26.03s-.415-18.036 1.257-23.486c1.671-5.45 2.2-25.59 2.2-25.59s-.108-40.276 0-42.995c.08-2.28 0-22.695 0-29.074v-1.887l2.4-5.974L261.436 307h13.6s20.47 4.823 22.585 6.904c.045.034.083.077.113.125 1.37 2.012-3.025 22.353-3.025 22.353z"/>
                <path fill="#000" fill-rule="nonzero" d="M259 429s6.47 14.918 9.522 15.954C271.575 445.991 259 429 259 429zM261 451s21.21.805 20.998 2.576C281.788 455.346 261 451 261 451zM233 445c.84.892 16.19 2.568 14.926 4.198-1.263 1.63-13.663 4.802-13.663 4.802L233 445zM231 419c0 .637 3.214 20.447 4.076 21.298.861.851 7.924 1.702 7.924 1.702l-12-23z" opacity=".1"/>
                <path fill="#3F3D56" fill-rule="nonzero" d="M253.255 152.442c-3.045 3.358-4.362 8.118-7.91 10.957-2.154 1.71-4.881 2.526-7.389 3.689-2.507 1.163-4.992 2.936-5.737 5.57-.832 2.964.774 5.992 1.618 8.956.872 3.067.924 6.271.976 9.481.058 3.882.122 7.765.052 11.647-.104 6.049-.612 12.377-3.865 17.502 11.746 3.689 24.237 4.19 36.554 4.664 2.368.166 4.745.107 7.101-.177 2.041-.401 4.06-.906 6.05-1.51 3.931-1.027 7.984-1.54 12.051-1.523 1.774 0 3.582.108 5.292-.348 1.71-.456 3.357-1.624 3.82-3.312.41-1.516-.191-3.13-.977-4.492-1.433-2.486-3.467-4.561-5.004-7.013-3.181-5.25-3.646-11.681-1.253-17.325 1.363-3.13 3.559-5.855 4.9-8.99 2.803-6.875 1.29-14.732-3.872-20.114-4.662-4.709-11.353-6.533-17.754-7.502-2.696-.314-5.267-1.295-7.476-2.85-2.456-1.597-5.64-1.985-8.516-1.631-3.32.367-6.394 1.9-8.66 4.321z"/>
                <g fill="#000" fill-rule="nonzero" opacity=".1">
                    <path d="M63.56 14.942c-1.178 2.768-1.682 5.773-1.473 8.772.13-2.144.628-4.25 1.472-6.227 1.357-3.154 3.55-5.9 4.89-9.06 1.094-2.638 1.555-5.494 1.345-8.34-.12 1.994-.574 3.956-1.345 5.801-1.34 3.16-3.533 5.9-4.89 9.054zM3.787 19.377c.034 2.252.069 4.51.075 6.761 0-3.102-.03-6.198-.075-9.295-.047-3.21-.104-6.462-.976-9.559C2.234 5.32 1.38 3.326 1.08 1.344c-.513 2.815.947 5.67 1.732 8.48.872 3.067.93 6.342.976 9.553zM66.988 47.36c-1.731.464-3.51.361-5.281.35-4.061-.026-8.108.48-12.036 1.505-1.987.607-4.004 1.113-6.044 1.516-2.355.291-4.732.353-7.1.184-11.89-.465-23.949-.965-35.338-4.349-.338.752-.724 1.48-1.154 2.183 11.735 3.711 24.215 4.223 36.516 4.7 2.367.168 4.745.107 7.1-.184 2.031-.4 4.041-.904 6.02-1.511 3.92-1.029 7.959-1.54 12.012-1.523 1.773 0 3.574.11 5.282-.356 1.709-.465 3.354-1.631 3.816-3.332.194-.787.174-1.612-.058-2.39-.514 1.61-2.101 2.73-3.735 3.206z" transform="translate(231 172)"/>
                </g>
                <path fill="#FBBEBE" fill-rule="nonzero" d="M280.966 211.198c-.421.937-2.197 9.027-2.619 9.857-.42.829-2.721 14.105-2.932 14.85-.21.744-15.16-3.115-15.16-3.115l-9.002-7.476-9.251-9.123s-.274-8.232 6.541-10.872c.463-.18.939-.327 1.423-.44 8.267-1.97 7.436-26.879 7.436-26.879l16.966 7.261s-3.143 14.534-3.035 17.338c.029.943.775 1.53 1.748 1.885 1.505.424 3.072.592 4.634.496 0 0 3.673 5.287 3.251 6.218z"/>
                <path fill="#6C63FF" fill-rule="nonzero" d="M311.237 239.312l2.39.662s1.767 2.838-2.39 5.48c-2.64 1.692-5.173 3.562-7.585 5.599L291.367 255 289 247.159 300.432 238l10.805 1.312z"/>
                <path fill="#000" fill-rule="nonzero" d="M311.237 239.312l2.39.662s1.767 2.838-2.39 5.48c-2.64 1.692-5.173 3.562-7.585 5.599L291.367 255 289 247.159 300.432 238l10.805 1.312z" opacity=".1"/>
                <path fill="#6C63FF" fill-rule="nonzero" d="M220.932 245.378L216 250.15s8.897 10.18 15.742 10.815c6.844.634 11.258-7.742 11.258-7.742L237.076 244l-16.144 1.378z"/>
                <path fill="#000" fill-rule="nonzero" d="M220.932 245.378L216 250.15s8.897 10.18 15.742 10.815c6.844.634 11.258-7.742 11.258-7.742L237.076 244l-16.144 1.378z" opacity=".1"/>
                <circle cx="266.5" cy="176.5" r="16.5" fill="#000" fill-rule="nonzero" opacity=".1"/>
                <circle cx="266.5" cy="175.5" r="16.5" fill="#FBBEBE" fill-rule="nonzero"/>
                <path fill="#000" fill-rule="nonzero" d="M298 316.653c-3.859.424-7.66 1.242-11.338 2.44-6.334 2.025-55.971.033-56.662 0v-1.832l2.43-5.798L261.222 308h13.774s20.73 4.68 22.872 6.7c.086 1.217.132 1.953.132 1.953zM280.966 211.604c-.421.921-2.197 8.88-2.619 9.695-.42.816-2.721 13.875-2.932 14.607-.21.733-15.16-3.063-15.16-3.063l-9.002-7.354-9.251-8.973s-.274-8.097 6.541-10.695l16.92 18.964L273.082 205c1.505.417 3.072.583 4.634.488 0 0 3.673 5.2 3.251 6.116z" opacity=".1"/>
                <path fill="#6C63FF" fill-rule="nonzero" d="M265.164 225.835l-17.34-19.964c-2.062-1.317-4.648-1.508-6.88-.508-3.882 1.683-8.705 3.046-9.964 3.885-1.26.838-5.98 6.029-5.98 6.029l14.057 36.796-6.19 24.236s.946 12.383-1.466 16.895c-1.468 2.884-2.156 6.104-1.995 9.337 0 0 .736 5.983-.102 9.126-.49 2.102-.527 4.283-.109 6.4 0 0 49.816 2.1 56.103 0 3.64-1.238 7.403-2.081 11.224-2.515 0 0-1.14-20.99-2.28-26.027-1.14-5.037.946-24.236.946-24.236l-1.362-20.569L302 223.616s-4.43-13.53-9.046-14.893c0 0-8.386-1.997-10.17-2.938-1.784-.94-7.028-1.785-7.028-1.785l-2.754.924-7.838 20.91z"/>
                <path fill="#000" fill-rule="nonzero" d="M252.295 242.313h34.053c1.624 0 2.94 1.316 2.94 2.94v55.224c0 1.624-1.316 2.94-2.94 2.94h-34.053c-1.624 0-2.94-1.316-2.94-2.94v-55.224c0-1.624 1.316-2.94 2.94-2.94z" opacity=".1" transform="rotate(3.89 269.322 272.865)"/>
                <path fill="#3F3D56" fill-rule="nonzero" d="M253.552 241.061h34.053c1.624 0 2.94 1.317 2.94 2.94v55.224c0 1.624-1.316 2.94-2.94 2.94h-34.053c-1.624 0-2.94-1.316-2.94-2.94v-55.224c0-1.623 1.316-2.94 2.94-2.94z" transform="rotate(3.89 270.578 271.613)"/>
                <path fill="#FFF" fill-rule="nonzero" d="M253.161 245.649L287.951 245.648 287.951 298.224 253.161 298.224z" transform="rotate(3.89 270.556 271.936)"/>
                <path fill="#000" fill-rule="nonzero" d="M257.918 259.276L286.341 259.276 286.341 267.197 257.918 267.197z" opacity=".1" transform="rotate(4.004 272.13 263.236)"/>
                <path fill="#000" fill-rule="nonzero" d="M280.912 291.521L285.422 291.521 285.422 295.648 280.912 295.648z" opacity=".1" transform="rotate(3.89 283.167 293.585)"/>
                <path fill="#000" fill-rule="nonzero" d="M257.92 280.952L281.005 280.952 281.005 285.08 257.92 285.08z" opacity=".1" transform="rotate(3.89 269.462 283.016)"/>
                <path fill="#3F3D56" fill-rule="nonzero" d="M261.174 244.105L285.211 244.105 285.211 250.451 261.174 250.451z" transform="rotate(3.89 273.193 247.278)"/>
                <path fill="#000" fill-rule="nonzero" d="M261.174 244.105L285.211 244.105 285.211 250.451 261.174 250.451z" opacity=".1" transform="rotate(3.89 273.193 247.278)"/>
                <path fill="#000" fill-rule="nonzero" d="M267.331 316s-.21 31.127-8.331 49c0 0 9.792-23.554 9.792-24.497 0-.943 5.41-10.831 3.961-13.775-1.448-2.943-5.422-10.728-5.422-10.728zM268.022 172.433c-.311-2.715.356-5.451 1.883-7.722-.375 4.704 2.77 8.97 7.389 10.026-.39-.337-.532-.88-.357-1.363 1.16 1.307 2.048 2.855 3.36 4.004 1.313 1.15 3.282 1.837 4.826 1.02 2.099-1.127 2.122-4.095 1.578-6.404-1.165-4.918-3.556-9.464-6.952-13.219-1.718-2.3-4.419-3.668-7.298-3.695-3.213-.248-6.55.034-9.43 1.47-1.62.88-3.138 1.937-4.526 3.149l-7.92 6.432c-.762.546-1.414 1.23-1.923 2.016-.34.657-.544 1.375-.6 2.112-.413 4.297 1.651 8.456 5.33 10.741-.079-3.405 1.917-6.52 5.05-7.885.486.404.773.997.787 1.628l1.67-2.963c.247-.54.638-1 1.13-1.335 1.03-.563 2.314.102 3.191.896.877.794 1.731 1.785 2.908 1.909l.045-4.41" opacity=".1"/>
                <path fill="#3F3D56" fill-rule="nonzero" d="M268.008 171.437c-.312-2.717.356-5.456 1.884-7.729-.51 4.507 2.904 9.16 7.397 10.028-.39-.335-.533-.876-.356-1.358 1.16 1.307 2.049 2.85 3.362 4.005 1.313 1.155 3.282 1.837 4.827 1.014 2.1-1.126 2.123-4.095 1.58-6.4-1.167-4.918-3.559-9.465-6.956-13.22-1.055-1.28-2.383-2.308-3.888-3.009-1.09-.401-2.236-.633-3.396-.687-3.215-.248-6.554.028-9.435 1.465-1.62.884-3.138 1.942-4.527 3.154l-7.924 6.434c-.764.545-1.416 1.23-1.924 2.016-.34.657-.545 1.376-.6 2.113-.412 4.296 1.653 8.454 5.331 10.737-.075-3.405 1.92-6.519 5.054-7.887.484.406.77.999.787 1.628l1.664-2.952c.247-.54.638-1.002 1.132-1.335 1.03-.563 2.315.102 3.192.896.877.794 1.732 1.78 2.909 1.91l.045-4.417"/>
                <path fill="#FBBEBE" fill-rule="nonzero" d="M274.776 277.001c-1.469-.731-25.76 2.999-25.76 2.999s-4-1.125-13.67-2.69c-9.671-1.563-10.289-10.869-10.289-10.869L224 247.813l3.264-2.813 13.98 9.002s.217 4.551 0 5.373c-.138.562-.504 1.232-.47 1.688.023.253.215.461.47.506.948.236 13.877 2.295 13.877 2.295s29.966-2.02 37.436 7.916c.591.73 1.04 1.562 1.32 2.453 1.852 6.791-17.77 3.415-19.101 2.768z"/>
                <path fill="#000" fill-rule="nonzero" d="M296 274.141c-1.152.5-1.867.859-1.867.859s-10.81-.309-16.883-2.453c-6.073-2.144-13.454-1.763-13.454-1.763S238.49 266.54 242.413 261c.022.253.216.46.473.505.956.236 13.99 2.29 13.99 2.29s30.21-2.015 37.741 7.899c.615.723 1.084 1.554 1.383 2.447z" opacity=".1"/>
                <path fill="#FBBEBE" fill-rule="nonzero" d="M305.112 241s1.478 10.12 1.581 10.943c.103.822.636 10.731 0 11.86-.636 1.128-1.58 2.962-1.58 2.962s1.053 2.145-3.163 2.967c-4.216.823-9.165 3.268-9.165 3.268s-10.752-.306-16.755-2.45c-6.003-2.146-13.38-1.74-13.38-1.74s-31.935-5.319-18.233-11.81c13.701-6.491 23.393 2.3 23.393 2.3l15.277-.916s5.694-3.38 7.275-3.068c1.116.138 2.25-.04 3.265-.511l.109-10.737L305.112 241z"/>
                <path fill="#000" fill-rule="nonzero" d="M228.539 216.16l-3.112-.16L216 251.958s10.179-2.523 14.566 0C234.954 254.48 243 255 243 255l-3-28.664-11.461-10.176z" opacity=".1"/>
                <path fill="#6C63FF" fill-rule="nonzero" d="M228.539 215.16l-3.112-.16L216 250.958s10.179-2.523 14.566 0C234.954 253.48 243 254 243 254l-3-28.664-11.461-10.176z"/>
                <path fill="#000" fill-rule="nonzero" d="M297.86 223l4.273.935s10.914 15.203 11.768 16.054c.855.85-4.07 3.941-6.099 3.941-2.03 0-11.978 1.127-14.867 3.728-2.89 2.602-1.686-10.49-1.686-10.789 0-.298 3.587-8.559 3.587-8.559l3.024-5.31z" opacity=".1"/>
                <path fill="#6C63FF" fill-rule="nonzero" d="M297.86 222l4.273.93s10.914 15.231 11.768 16.059c.855.828-4.07 3.941-6.099 3.941-2.03 0-11.978 1.127-14.867 3.728-2.89 2.602-1.686-10.49-1.686-10.789 0-.298 3.61-8.587 3.61-8.587l3-5.282z"/>
                <g fill="#000" fill-rule="nonzero" opacity=".1">
                    <path d="M22.251 1.614c-.024-.43-.015-.864.029-1.293-.87 1.285-1.469 2.729-1.76 4.247V6.136c0 .911 0 1.828-.029 2.74h-.08v.421c0-.146 0-.287-.028-.433-1.143-.18-1.96-1.125-2.812-1.879-.851-.753-2.182-1.473-3.222-.894-.499.332-.894.794-1.143 1.333l-1.697 2.948c-.016-.628-.305-1.218-.795-1.62-3.166 1.363-5.181 4.474-5.103 7.875C2.444 14.674.426 11.338.19 7.667c-.203 4.115 1.872 8.016 5.422 10.198-.075-3.4 1.94-6.51 5.103-7.875.489.405.778.997.795 1.626l1.68-2.948c.249-.54.644-1 1.142-1.333 1.04-.563 2.338.101 3.223.894.886.794 1.749 1.778 2.937 1.907 0-1.44.016-2.876.046-4.308.28-1.503.863-2.936 1.714-4.214z" transform="translate(247 162)"/>
                    <path d="M20.32 7.279c.029-.383.074-.765.131-1.125l.063-1.553c-.172.882-.237 1.78-.194 2.678zM37.657 13.99c-1.56.82-3.548.134-4.874-1.013-1.326-1.148-2.223-2.694-3.394-4-.178.484-.035 1.025.36 1.362-.115 0-.223-.056-.332-.085 1.143 1.294 2.052 2.813 3.366 3.938s3.314 1.834 4.874 1.012c1.56-.82 2.006-2.745 1.869-4.618-.103 1.474-.64 2.75-1.869 3.403zM29.383 10.243c-3.913-1.05-6.752-4.382-7.12-8.359-.326 4.416 3.057 8.843 7.486 9.692-.386-.33-.53-.857-.366-1.333z" transform="translate(247 162)"/>
                </g>
                <path fill="url(#g51p630orb)" fill-rule="nonzero" d="M550.468 265.53s-2.264-.313-2.264-3.582c0-3.268-1.62-9.39-1.62-9.39s-1.403-10.65-3.34-12.338c-1.936-1.689-4.425-11.603-4.425-11.603s-.425-5.38-1.293-6.537c-.867-1.158-2.04-3.993-3.77-8.038-1.73-4.044-8.924-6.817-8.924-6.817s-13.04-7.507-16.734-9.954c-.338-.203-.654-.44-.943-.708-.644-.832-3.448-.85-3.448-.85-.293-1.842-.575-3.953-.667-5.864v-.616c4.12-2.417 7.224-6.23 8.741-10.736.07-.216.127-.439.19-.661.51-.157.928-.522 1.15-1.004.327-.736.338-1.592.752-2.282.483-.81 1.402-1.244 2.126-1.848 1.828-1.546 2.299-4.142 2.213-6.498-.058-1.916-.368-3.845-.247-5.744 0-.16 0-.32.034-.48.035-.279.075-.57.127-.844.281-1.414.896-2.75 1.24-4.153.346-1.403.38-2.983-.424-4.192-1.179-1.774-3.632-2.128-5.787-2.282-2.443-.205-4.598.057-6.19-1.957-.73-1.051-1.553-2.037-2.46-2.943-.321-.297-3.447-2.196-3.447-2.316-3.059-1.412-6.529-1.677-9.77-.748-1.626.468-3.149 1.233-4.798 1.615-3.54.833-7.62-.069-10.631 1.945-1.679 1.14-2.684 2.96-3.627 4.723-.766 1.453-1.544 2.908-2.333 4.364-1.276 2.39-2.563 4.82-3.097 7.467-.112.579-.183 1.164-.213 1.752v.907c0 .194 0 .388.035.57.034.183 0 .234.04.354.04.12.052.388.086.57.034.183.103.508.172.753 0 .109.07.211.104.32.034.108.126.382.201.57.075.188.08.2.126.297.087.2.19.393.293.57.046.074.08.149.127.223.158.267.334.522.529.764 1.224 1.523 3.04 2.493 4.379 3.92v.638c.166 6.458 3.54 12.417 9.01 15.916 0 .216.03.439.04.661.113 1.692.092 3.39-.063 5.077-.475-.553-1.176-.863-1.907-.844-.247-.012-.495.009-.736.063l-.052-.04v.051c-1.264.308-2.821 1.615-4.31 5.328 0 0-4.528 5.066-7.976 4.855-3.448-.211-12.177 5.276-12.177 5.276s-8.517 5.482-10.345 11.073c-1.021 3.17-2.248 6.273-3.672 9.287l-10.556 21.517L428 268.2s1.075 7.593.862 8.757c-.213 1.164 4.42 11.603 4.42 11.603s15.303 26.685 21.555 28.054l.448-.308c.27.135.553.238.845.308l1.287-.895c.08 1.003.045 2.011-.103 3.006-.856 2.641.327 19.835 1.833 23.206 1.506 3.371.971 47.581.971 47.581l-.212 3.896s0 .126.051.342l-.051.925.155.08c.16 1.239.108 2.497-.155 3.719-.54 1.711-.759 6.543-.759 6.543s-4.31 27.313-2.264 32.8c2.046 5.488 3.776 11.5 3.776 11.5s2.155 6.846.103 7.987c-2.052 1.141-7.862 3.166-6.678 6.013 1.092 2.635 5.236 9.697 5.85 10.73l-.051.57-.845 9.087c.137 1.2.465 2.371.971 3.469.925 1.985 2.718 4.033 6.143 3.81.575-.04 1.236-.102 1.885-.188 6.258-.838 13.959-3.61 13.959-3.61-.4-.252-.764-.553-1.086-.896-.622-.598-.969-1.423-.96-2.282.092-1.66-3.028-9.538-3.81-11.483l-.178-.434s7.114-7.387 5.93-13.925c0 0-7.872-4.563-5.28-7.073 2.591-2.51 7.223-9.698 7.223-9.698s.213-26.896 0-30.907c-.222-2.789-.088-5.595.396-8.351.087-.41.19-.816.3-1.22 3.587.537 7.21.81 10.838.815 1.325 0 2.666-.027 4.022-.08 0 .38.018.791.052 1.232.299 6.663.856 18.352 1.31 22.693.644 6.218 4.201 22.995 4.201 22.995s-6.787 4.318 1.184 14.98c0 0 0 3.856-.529 4.42-.565 1.83-1.02 3.69-1.362 5.574-.333 2.002-.471 4.039.07 5.088 1.292 2.522 9.05 2.316 9.05 2.316.063-.014.126-.024.19-.028 2.958-.31 5.918.573 8.212 2.453 2.948 2.35 14.131 1.323 20.194.57 2.373-.302 3.96-.57 3.96-.57.076-.267.103-.545.08-.822-.063-1.477-1.23-4.717-9.138-7.61 0 0-7.436-4.963-7.332-9.287h-1.023c.54-.017.92-.017.92-.017s-2.914-10.547-1.725-11.409c1.19-.861-2.373-12.55-2.373-12.55s-2.04-19.623-2.155-20.992c.007-1.18.19-2.352.54-3.48l-.54-10.764s-.104-3.577 0-4.74c-.012-1.01-.092-2.019-.242-3.018-.051-.4-.103-.816-.16-1.227 2.787-.701 4.597-1.346 4.597-1.346l-.322-37.45c2.368-4.563 2.805-14.58 2.793-21.677 0-4.563-.207-7.94-.207-7.94l3.236-5.243s.747-6.275-.437-7.65c-.523-.621-.288-1.266.143-1.797.227-.184.467-.352.719-.502-.028-.04-.053-.081-.075-.125.226-.187.466-.357.718-.508 0 0-1.149-1.768-.12-2.515.965.65 1.827 1.169 2.482 1.54-.046.416-.092.656-.092.656l.276-.57c.632.353 1.017.57 1.017.57s5.069-10.023 4.96-11.495c-.11-1.472 3.448-7.7 3.448-7.7s.43-3.275 2.373-4.644c1.943-1.37 1.506-11.29 1.506-11.29s.54-5.168 1.833-7.273c1.293-2.105-1.155-4.968-1.155-4.968zm-96.981-4.397l.097 2.39c-.574-.919-.988-1.575-.988-1.575l.89-.815z"/>
                <path fill="#FFF" fill-rule="nonzero" d="M538 307.82l-1.207 5.18s-9.666-4.983-11.404-11.29c-1.738-6.306 2.911-8.71 2.911-8.71l9.013 3.84.687 10.98z"/>
                <path fill="#000" fill-rule="nonzero" d="M538 307.82l-1.207 5.18s-9.666-4.983-11.404-11.29c-1.738-6.306 2.911-8.71 2.911-8.71l9.013 3.84.687 10.98z" opacity=".1"/>
                <path fill="#FFF" fill-rule="nonzero" d="M483 486.291s-9.4 3.28-15.862 3.693c-3.431.217-5.235-1.78-6.163-3.704-.504-1.061-.833-2.19-.975-3.346l.852-8.84.446-4.703 13.73-3.391 1.944 5.65.183.424c.775 1.89 3.912 9.554 3.818 11.155-.015.837.33 1.643.958 2.231.318.32.677.598 1.069.831zM544.992 481.74c.023.275-.004.553-.08.819 0 0-19.541 3.243-23.538 0-2.272-1.916-5.249-2.79-8.2-2.407 0 0-7.56.205-8.823-2.276-.525-1.041-.388-3.061-.063-5.047.333-1.868.775-3.714 1.325-5.53l.303-.24 1.798-1.439 21.06-.62h.16c-.103 4.29 7.144 9.212 7.144 9.212 7.715 2.845 8.851 6.06 8.914 7.527z"/>
                <path fill="#000" fill-rule="nonzero" d="M544.994 482.775c.02.272-.009.545-.086.806 0 0-19.537 3.192-23.528 0-2.273-1.887-5.252-2.747-8.205-2.368 0 0-7.564.201-8.826-2.24-.52-1.025-.388-3.013-.063-4.973 2.912.286 7.508.997 9.312 2.7 2.729 2.575 7.354 5.151 10.185 5.358 2.239.135 15.547.549 21.21.717zM482 487.748s-8.962 2.876-15.124 3.238c-3.271.19-4.991-1.56-5.876-3.248 2.285.67 5.45 1.37 7.114.73 1.972-.769 8.962-1.258 12.883-1.468.296.286.633.538 1.003.748z" opacity=".1"/>
                <path fill="#CF6F80" fill-rule="nonzero" d="M496.384 217.326c-7.633-2.934-17.453-12.63-15-17.16.541-1.144.865-2.378.953-3.638.158-1.712.181-3.433.07-5.148-.172-2.811-.514-5.61-1.024-8.38 0 0 23.831.532 22.443 4.004-.405 1.024-.474 2.791-.358 4.765.115 1.973.399 4.221.7 6.115.41 2.59.832 4.576.832 4.576s-1.463 2.019-2.313 2.127c-.85.11 4.65 16.943-6.303 12.739z"/>
                <path fill="#000" fill-rule="nonzero" d="M477 472.573l-.179.206c-7.103-8.994-15.694 2.221-15.694 2.221l-.127-.241.438-5.089 13.475-3.67 1.908 6.115.179.458zM529 466.45s-5.29-.074-8.111 1.68c-2.822 1.754-16.458.376-15.87 0 .17-.191.276-.408.305-.633l1.852-1.046 21.677-.451c.082.29.147.45.147.45z" opacity=".1"/>
                <path fill="#6C63FF" fill-rule="nonzero" d="M485.942 400.281c-.376.947-.662 1.928-.854 2.93-.469 2.746-.6 5.54-.388 8.317.208 3.999 0 30.794 0 30.794s-4.446 7.145-6.93 9.664c-2.485 2.52 5.058 7.043 5.058 7.043 1.124 6.518-5.688 13.875-5.688 13.875-6.925-8.511-15.3 2.096-15.3 2.096s-4.554-7.997-5.69-10.853c-1.135-2.856 4.447-4.826 6.409-5.992 1.962-1.165-.101-7.997-.101-7.997s-1.653-5.991-3.62-11.458c-1.968-5.466 2.17-32.673 2.17-32.673s.213-4.838.725-6.523c.255-1.216.306-2.467.151-3.701-.033-.417-.073-.76-.1-1-.029-.24-.051-.342-.051-.342l.078-.137 2.81-5.324s22.67 7.928 21.321 11.281zM529 465.54s-5.229-.107-8.017 2.275c-2.789 2.382-16.267.523-15.686 0 .581-.523.53-4.39.53-4.39-7.908-10.568-1.163-14.855-1.163-14.855s-3.526-16.63-4.165-22.8c-.447-4.303-1-15.919-1.296-22.497-.127-2.843-.203-4.804-.203-4.804l6.402-1.245.83-.16L521.815 394s.43 2.843.72 5.168c.147.993.227 1.994.238 2.996-.098 1.138 0 4.702 0 4.702l.535 10.666c-.345 1.12-.525 2.282-.535 3.451.11 1.365 2.138 20.815 2.138 20.815s3.526 11.61 2.324 12.446C526.03 455.08 529 465.54 529 465.54z"/>
                <path fill="#000" fill-rule="nonzero" d="M503.94 185.805c-.413.972-.484 2.652-.366 4.527-6.658 3.686-15.024 3.543-21.528-.37-.176-2.67-.525-5.33-1.046-7.962 0 0 24.359.505 22.94 3.805z" opacity=".1"/>
                <path fill="#CF6F80" fill-rule="nonzero" d="M513.989 174.386c.129 10.703-8.495 19.484-19.261 19.613-10.766.128-19.599-8.445-19.728-19.148v-.465c0-10.707 8.73-19.386 19.5-19.386s19.5 8.68 19.5 19.386h-.011z"/>
                <path fill="#000" fill-rule="nonzero" d="M496.384 217.34c-7.633-2.87-17.453-12.352-15-16.782.541-1.12.865-2.325.953-3.558l10.45 8.313 6.465 5.13 4.915-12.1c.41 2.534.833 4.475.833 4.475s-1.463 1.975-2.313 2.08c-.85.107 4.65 16.554-6.303 12.442z" opacity=".1"/>
                <path fill="#6C63FF" fill-rule="nonzero" d="M523 254.251L514.376 399.262 503.129 400 474 315.917 478.778 216.091 479.789 195 492.739 205.646 499.129 210.891 504.129 198.152 513.427 206.263z"/>
                <path fill="#000" fill-rule="nonzero" d="M485.94 399.104c-.387.936-.681 1.906-.88 2.896-8.296-1.246-16.354-3.699-23.904-7.277l-.156-.079.052-.909v-.474l2.894-5.261s23.384 7.79 21.994 11.104zM506 402.287c-1.925.351-3.867.59-5.816.713-.116-2.806-.184-4.743-.184-4.743l5.826-1.257.174 5.287zM522 398.498c-4.054.915-10.32 1.945-15.92 1.301l-.08-3.132L521.293 394s.405 2.454.707 4.498z" opacity=".1"/>
                <path fill="#000" fill-rule="nonzero" d="M507 401.159c-23.394 3.973-44.82-7.42-44.82-7.42l.205-3.86s.531-43.763-.941-47.118c-1.472-3.355-2.619-20.346-1.786-22.94.833-2.595-3.041-41.766-3.041-41.766l-.628-15.895L433 252.867l10.27-21.305c1.388-2.987 2.58-6.058 3.573-9.197 1.785-5.535 10.076-10.967 10.076-10.967s8.502-5.428 11.863-5.223c3.36.204 7.766-4.803 7.766-4.803 3.252-8.248 6.196-4.541 6.196-4.541 0 .397 0 0-.16 1.22-1.14 9.055 18.453 37.666 18.733 38.177l1.889 45.222 1.888 57.229 1.906 62.48z" opacity=".1"/>
                <path fill="#FFF" fill-rule="nonzero" d="M507 401.159c-23.389 3.973-44.815-7.42-44.815-7.42l.21-3.86s.526-43.763-.946-47.118c-1.472-3.355-2.619-20.363-1.78-22.98.839-2.617-3.058-41.748-3.058-41.748l-.633-15.896L433 252.844l10.268-21.305c1.384-2.986 2.576-6.055 3.571-9.19 1.786-5.519 10.103-10.957 10.103-10.957s8.5-5.427 11.854-5.223c3.355.204 7.781-4.797 7.781-4.797 3.258-8.248 6.846-4.541 6.846-4.541 0 .397-.342.567-.16 1.22 2.51 8.782 17.821 37.666 18.1 38.177l1.89 45.222 1.847 57.257 1.9 62.452z"/>
                <path fill="#000" fill-rule="nonzero" d="M500 237c-2.452-1.065-15.44-16.503-15.44-16.503v-3.514c-.473-1.157-3.286-.451-5.56.36l.979-21.343 1.112.96c2.43 8.95 18.642 39.525 18.909 40.04z" opacity=".1"/>
                <path fill="#FFF" fill-rule="nonzero" d="M500 235c-2.457-1.071-15.442-16.51-15.442-16.51v-3.52c-.472-1.16-3.279-.453-5.558.358l.962-21.328 1.111.956c2.452 8.94 18.655 39.523 18.927 40.044z"/>
                <path fill="#000" fill-rule="nonzero" d="M461.303 310.668c.318 0 16.507-1.668 16.507-1.668s9.802 18.897 9.16 23.488c-.643 4.59-1.807 8.665-5.75 7.945-3.943-.721-21.22.567-21.22.567l1.303-30.332z" opacity=".1"/>
                <path fill="#FFF" fill-rule="nonzero" d="M461.302 309.67c.325 0 16.51-1.67 16.51-1.67s9.795 18.939 9.158 23.482c-.637 4.543-1.812 8.671-5.748 7.95C477.286 338.711 460 340 460 340l1.302-30.33z"/>
                <path fill="#CF6F80" fill-rule="nonzero" d="M472.839 301s14.834 7.795 15.152 10.168c.318 2.372-7.55-1.04-9.25-1.458-1.12-.26-2.258-.433-3.405-.52l-11.336.3 8.839-8.49z"/>
                <circle cx="495.5" cy="236.5" r="1.5" fill="#000" fill-rule="nonzero" opacity=".1"/>
                <circle cx="495.5" cy="235.5" r="1.5" fill="#3F3D56" fill-rule="nonzero"/>
                <circle cx="499.5" cy="302.5" r="1.5" fill="#000" fill-rule="nonzero" opacity=".1"/>
                <circle cx="499.5" cy="302.5" r="1.5" fill="#3F3D56" fill-rule="nonzero"/>
                <circle cx="496.5" cy="269.5" r="1.5" fill="#000" fill-rule="nonzero" opacity=".1"/>
                <circle cx="496.5" cy="269.5" r="1.5" fill="#3F3D56" fill-rule="nonzero"/>
                <path fill="#FFF" fill-rule="nonzero" d="M532.672 309.76s1.047 1.572 0 2.279c-1.047.706.103 2.518.103 2.518s-2.612 1.527-1.463 2.912c1.15 1.384.421 7.6.421 7.6l-3.14 5.237s.188 3.356.2 7.89c0 7.077-.416 17.026-2.714 21.561l.307 37.212s-10.997 4.028-20.201 2.797l-1.366-59.712s1.991-33.861 2.725-40.356c.43-3.372.605-6.772.524-10.17 0 0-.313-10.165-1.366-14.877 0 0-1.138-20.444-1.251-26.102-.052-2.706.09-10.603.25-18.112.176-8.21.375-15.954.375-15.954L504 198.023s2.076-.206 2.702.626c.28.262.585.497.91.7 3.59 2.428 16.254 9.892 16.254 9.892s7.008 2.792 8.687 6.792c1.678 4 2.844 6.837 3.658 7.977.813 1.14 1.257 6.495 1.257 6.495s2.412 9.857 4.295 11.526c1.883 1.67 3.237 12.267 3.237 12.267l-16.64 13.105s-1.462 21.8-1.775 22.643c-.313.843 6.087 19.714 6.087 19.714z"/>
                <path fill="#FFF" fill-rule="nonzero" d="M533.544 309.849s1.049 1.571 0 2.277c-1.05.706.097 2.516.097 2.516s-2.63 1.525-1.473 2.908c1.158 1.383.424 7.594.424 7.594l-3.152 5.23s.189 3.353.206 7.884c0 7.07-.418 17.008-2.734 21.539l.315 37.175s-11.08 4.024-20.355 2.794l-1.37-59.652s2-33.828 2.746-40.317c.433-3.369.607-6.766.521-10.16 0 0-.315-10.155-1.37-14.863 0 0-1.146-20.423-1.267-26.075-.051-2.704.092-10.593.253-18.095.177-8.202.378-15.938.378-15.938L504 198s2.763 0 3.4.848c.279.265.586.5.916.7 3.612 2.425 16.372 9.882 16.372 9.882s7.044 2.789 8.764 6.785c1.72 3.995 2.866 6.83 3.686 7.968.82 1.139 1.267 6.49 1.267 6.49s2.43 9.847 4.328 11.514c1.897 1.668 3.267 12.255 3.267 12.255l-16.767 13.092s-1.473 21.778-1.794 22.62c-.32.843 6.105 19.695 6.105 19.695z"/>
                <path fill="#000" fill-rule="nonzero" d="M513.766 218.875l1.506 4.302-7.907 7.823c.176-8.052.375-15.645.375-15.645L505 199s2.74 0 3.371.833c.278.26.582.49.91.687L516 219.568l-2.234-.693z" opacity=".1"/>
                <path fill="#FFF" fill-rule="nonzero" d="M512.734 217.883l1.501 4.296-7.873 7.821c.17-8.05.374-15.642.374-15.642L504 198s2.736 0 3.359.832c.278.259.581.49.906.688L515 218.58l-2.266-.698z"/>
                <path fill="#000" fill-rule="nonzero" d="M513.989 174.865c.002 2.092-.321 4.171-.958 6.16-.216.037-.439-.018-.615-.151-.154-5.225-2.673-10.136-5.778-14.31-.874-1.259-1.93-2.375-3.134-3.309-1.22-.932-2.734-1.368-4.252-1.225-1.709.238-3.22 1.422-4.946 1.573-2.28.192-4.32-1.416-6.581-1.492-1.861.016-3.625.85-4.838 2.288-1.19 1.429-2.073 3.096-2.593 4.893-.896 2.728-1.384 5.577-1.448 8.453-.028 1.625-.182 3.663-1.664 4.255.227-2.415-.552-4.817-2.148-6.618l-.034-.04v-.477c0-10.971 8.73-19.865 19.5-19.865s19.5 8.894 19.5 19.865h-.011z" opacity=".1"/>
                <path fill="#512E4E" fill-rule="nonzero" d="M501.817 143.29c-2.987-1.407-6.384-1.673-9.553-.748-1.592.471-3.093 1.237-4.708 1.623-3.449.834-7.473-.07-10.433 1.95-1.644 1.152-2.632 2.97-3.552 4.743l-2.3 4.38c-1.253 2.4-2.517 4.84-3.04 7.482-.523 2.642-.207 5.6 1.466 7.73 1.212 1.543 3.017 2.515 4.34 3.971 1.605 1.795 2.389 4.18 2.16 6.579 1.495-.576 1.645-2.607 1.68-4.219.064-2.85.556-5.676 1.46-8.38.524-1.782 1.415-3.435 2.615-4.852 1.223-1.427 3.002-2.255 4.88-2.273 2.3.08 4.363 1.675 6.639 1.479 1.724-.144 3.253-1.318 4.99-1.554 1.53-.145 3.06.288 4.288 1.214 1.215.924 2.28 2.03 3.155 3.281 3.139 4.144 5.685 8.99 5.835 14.187.65.472 1.586-.15 1.908-.886.322-.737.333-1.6.742-2.302.47-.812 1.373-1.25 2.08-1.86 1.794-1.547 2.242-4.155 2.173-6.52-.069-2.366-.529-4.766-.08-7.091.27-1.422.88-2.763 1.213-4.173.333-1.41.373-2.993-.414-4.207-1.15-1.779-3.57-2.135-5.68-2.302-2.396-.207-4.54.057-6.07-1.963-.72-1.053-1.527-2.042-2.414-2.958-.316-.305-3.38-2.205-3.38-2.331z"/>
                <path fill="#000" fill-rule="nonzero" d="M439.731 263.818L433.861 253 432 269.695s1.035 7.417.827 8.554c-.208 1.138 4.24 11.334 4.24 11.334S451.757 315.66 457.757 317L478 302.569l-5.375-6.801s-1.862-.723-2.328 0c0 0-9.986-17.11-11.015-18.342-1.03-1.233-.832-3.715-.832-3.715s-1.552-1.647-1.035-3.193c.517-1.546-2.969-6.902-2.969-6.902l3.205-2.986-17.92 3.188z" opacity=".1"/>
                <path fill="#FFF" fill-rule="nonzero" d="M434.41 251l-1.55 1.272-1.86 17.145s1.034 7.618.826 8.786c-.208 1.168 4.242 11.64 4.242 11.64s14.676 26.782 20.671 28.157L477 303.179l-5.377-6.985s-1.86-.742-2.326 0c0 0-9.973-17.571-11.007-18.837-1.034-1.266-.826-3.815-.826-3.815s-1.55-1.691-1.034-3.28c.517-1.587-3-7.088-3-7.088l3.202-3.066L434.411 251z"/>
                <path fill="#000" fill-rule="nonzero" d="M531.575 316.942c1.109 1.358.41 7.457.41 7.457l-3.06 5.1s.182 3.295.193 7.741l-5.146 1.62c-.945.297-1.974.115-2.763-.488-.788-.604-1.238-1.554-1.208-2.55l.893-28.822 12.006 4.62c-1.02.714.1 2.468.1 2.468s-2.545 1.497-1.425 2.854z" opacity=".1"/>
                <path fill="#FFF" fill-rule="nonzero" d="M532.574 316.94c1.11 1.35.41 7.445.41 7.445l-3.052 5.101s.183 3.287.2 7.73l-5.245 1.646c-.925.292-1.932.115-2.703-.474-.772-.588-1.213-1.516-1.183-2.49l.894-28.898 12.01 4.627c-1.026.714.095 2.467.095 2.467s-2.548 1.49-1.426 2.846z"/>
                <path fill="#CF6F80" fill-rule="nonzero" d="M536 303.434s-.849 5.172-2.973 5.474c-2.124.303-3.076 8.366-5.195 8.085-2.118-.281-.716-7.5-.64-8.9.074-1.398-2.31-7.192-.532-8.508 1.778-1.316 7.435 0 7.435 0l1.905 3.85z"/>
                <path fill="#000" fill-rule="nonzero" d="M540.669 261.983l3.99-7.983s1.594 6.084 1.594 9.334 2.222 3.57 2.222 3.57 2.435 2.85 1.151 4.931-1.796 7.236-1.796 7.236.42 9.858-1.485 11.22c-1.906 1.364-2.332 4.62-2.332 4.62s-3.494 6.186-3.384 7.657c.109 1.471-4.87 11.432-4.87 11.432s2.434-12.379-11.756-17.727c0 0-.11-4.196.95-5.348 1.06-1.152 2.711-1.71 1.675-7.504-1.036-5.793-.3-12.777-.3-14.174 0-1.397 3.179-10.104 3.179-10.104l11.162 2.84z" opacity=".1"/>
                <path fill="#FFF" fill-rule="nonzero" d="M542.162 253l3.491 1.138s1.596 6.07 1.596 9.312c0 3.243 2.225 3.561 2.225 3.561s2.437 2.845 1.152 4.921-1.804 7.219-1.804 7.219.427 9.836-1.48 11.195c-1.908 1.36-2.305 4.608-2.305 4.608s-3.498 6.172-3.388 7.64c.11 1.468-4.88 11.406-4.88 11.406s2.437-12.35-11.766-17.686c0 0-.104-4.187.956-5.336 1.06-1.15 2.714-1.707 1.677-7.487s-.3-12.748-.3-14.142c0-1.393 3.18-10.08 3.18-10.08L542.163 253z"/>
                <path fill="#000" fill-rule="nonzero" d="M466 460.382s5.638-4.427 9.339-1.21c3.7 3.216-9.339 1.21-9.339 1.21zM509 449.03s4.993-.613 9.186 3.696c4.194 4.31-9.186-3.696-9.186-3.696z" opacity=".1"/>
                <g fill="#000" fill-rule="nonzero" opacity=".1">
                    <path d="M48.309 19.262c-.703.615-1.606 1.045-2.075 1.855-.4.696-.411 1.557-.731 2.298-.32.741-1.252 1.356-1.903.885-.149-5.17-2.68-10.024-5.794-14.16-.871-1.247-1.93-2.35-3.137-3.27-1.223-.926-2.745-1.36-4.269-1.217-1.714.235-3.223 1.407-4.954 1.557-2.286.19-4.337-1.402-6.606-1.477-1.865.014-3.632.84-4.846 2.264-1.193 1.414-2.078 3.064-2.6 4.842-.898 2.7-1.387 5.52-1.451 8.365-.034 1.602-.183 3.602-1.657 4.199.034.426.034.855 0 1.281 1.491-.574 1.64-2.602 1.674-4.21.064-2.846.553-5.666 1.451-8.365.522-1.779 1.408-3.428 2.6-4.843 1.215-1.423 2.981-2.25 4.846-2.269 2.286.08 4.343 1.672 6.606 1.476 1.714-.143 3.234-1.315 4.954-1.55 1.524-.145 3.046.287 4.269 1.211 1.208.922 2.266 2.027 3.137 3.275 3.114 4.136 5.646 8.973 5.794 14.16.652.472 1.583-.149 1.903-.884.32-.735.331-1.597.731-2.298.469-.81 1.372-1.247 2.075-1.856 1.783-1.545 2.228-4.147 2.16-6.508v-.219c-.115 2.057-.657 4.142-2.177 5.458zM6.12 18.86c-1.309-1.454-3.103-2.43-4.309-3.97C.793 13.531.213 11.891.15 10.191c-.18 2.126.41 4.246 1.662 5.969 1.206 1.54 3 2.51 4.309 3.964 1.264 1.42 2.024 3.223 2.16 5.124.174-2.336-.606-4.643-2.16-6.388zM51.594 1.51c-.337 1.408-.937 2.747-1.211 4.166-.165.96-.224 1.934-.177 2.907.019-.55.078-1.097.177-1.638.274-1.419.874-2.757 1.211-4.165.194-.776.258-1.58.189-2.378-.037.374-.1.744-.189 1.109z" transform="translate(468 154)"/>
                </g>
                <ellipse cx="74.5" cy="469.5" fill="#6C63FF" fill-rule="nonzero" opacity=".1" rx="55.5" ry="8.5"/>
                <path fill="#535461" fill-rule="nonzero" d="M73 298H76V379H73z"/>
                <path fill="#3F3D56" fill-rule="nonzero" d="M98.99 378.508l-.226 3.657-.31 5.174-.13 2.15-.316 5.175-.135 2.15-.31 5.175-3.57 58.685c-.316 5.241-4.577 9.326-9.727 9.326H65.731c-5.165.002-9.434-4.108-9.727-9.366l-3.57-58.685-.31-5.175-.129-2.15-.321-5.175-.13-2.15-.31-5.175-.226-3.656c-.079-1.417.416-2.804 1.37-3.838.952-1.033 2.28-1.623 3.671-1.63h37.905c1.398.008 2.73.604 3.683 1.646.953 1.043 1.443 2.44 1.352 3.862z"/>
                <path fill="#9D9CB5" fill-rule="nonzero" d="M99 382L98.681 387 51.319 387 51 382zM98 389L97.688 394 51.318 394 51 389zM98 397L97.688 402 52.317 402 52 397z"/>
                <path fill="#6C63FF" fill-rule="nonzero" d="M45.672 328.045C66.377 343.238 75 367 75 367s-24.945-.868-45.655-16.062C8.635 335.745 0 312 0 312s24.945.851 45.672 16.045z"/>
                <path stroke="#535461" stroke-width="2" d="M0 312s25.9 14.575 34.208 26.643C42.516 350.712 75 367 75 367"/>
                <path fill="#6C63FF" fill-rule="nonzero" d="M58.962 298.76C70.284 307.04 75 320 75 320s-13.669-.473-24.962-8.753C38.744 302.966 34 290 34 290s13.646.473 24.962 8.76z"/>
                <path stroke="#535461" stroke-width="2" d="M34 290s14.158 7.952 18.703 14.533C57.248 311.114 75 320 75 320"/>
                <path fill="#6C63FF" fill-rule="nonzero" d="M90.727 319.882C77.747 334.238 75 353 75 353s18.303-4.52 31.273-18.882C119.243 319.756 122 301 122 301s-18.292 4.526-31.273 18.882z"/>
                <path stroke="#535461" stroke-width="2" d="M122 301s-16.906 14.718-21.203 24.858C96.499 335.998 75 353 75 353"/>
            </g>
        </g>
    </g>
</svg>
