<svg xmlns="http://www.w3.org/2000/svg" width="44" height="56" viewBox="0 0 44 56">
    <g fill="none" fill-rule="evenodd">
        <g fill="#7063FF" fill-rule="nonzero" stroke="#7063FF" stroke-width=".5">
            <g>
                <g>
                    <path d="M21.257.354C14.242.626 8.677 6.294 8.605 13.24v6.808c0 1.384-.35 2.745-1.016 3.961-1.758 3.202-2.12 6.974-1.004 10.446l-2.007.81C2.173 36.233.6 38.546.6 41.115V52.81c.001 1.094.897 1.98 2.003 1.98h38.34c.53 0 1.04-.207 1.416-.579.376-.371.588-.875.588-1.4V41.115c-.001-2.57-1.576-4.884-3.983-5.852l-2.005-.809c1.117-3.472.755-7.244-1.003-10.446-.667-1.216-1.016-2.577-1.016-3.96v-6.81c-.037-3.52-1.511-6.876-4.089-9.303-2.578-2.428-6.038-3.72-9.594-3.582h0zm.161.932c3.266-.095 6.432 1.123 8.775 3.375 2.344 2.252 3.666 5.347 3.666 8.579v6.808c0 1.563.396 3.1 1.15 4.473 1.601 2.92 1.942 6.357.945 9.53l-7.123-2.868c-.898-.362-1.485-1.225-1.485-2.183v-2.075c2.68-1.818 4.28-4.826 4.28-8.04v-4.227c0-.568-.428-1.046-.998-1.116-4.434-.543-8.551-2.555-11.682-5.708-.275-.275-.673-.392-1.055-.309-.381.084-.693.355-.825.719-.78 2.142-2.396 3.886-4.486 4.838-.402.185-.66.583-.66 1.022v4.78c0 3.214 1.6 6.222 4.279 8.04V29c0 .958-.587 1.821-1.485 2.183L7.591 34.05c-.996-3.173-.654-6.61.948-9.53.753-1.373 1.147-2.91 1.147-4.473V13.24c0-6.468 5.197-11.764 11.732-11.954h0zm-3.281 7.236v.02c3.306 3.35 7.666 5.489 12.363 6.064.01.002.02.007.027.014v4.272c0 4.792-3.926 8.677-8.77 8.677-4.844 0-8.77-3.885-8.77-8.677v-4.78c-.002-.009-.002-.017 0-.025.003-.007.007-.014.013-.019.008-.007.017-.011.027-.013 2.376-1.083 4.207-3.072 5.075-5.514l-.014-.016.049-.003zm-.855 19.041c2.82 1.428 6.161 1.428 8.981 0V29c0 1.318.763 2.52 1.964 3.091l-6.454 6.325-6.46-6.325c1.203-.57 1.969-1.772 1.969-3.091v-1.437zm-3.05 4.972l7 6.858V53.72H2.602c-.507 0-.92-.406-.921-.909V41.116c0-2.134 1.307-4.057 3.306-4.861L10.34 34.1v1.81c-1.635.224-2.959 1.427-3.323 3.02l-1.864 8.132c-.127.553.026 1.132.41 1.553h0c.48.526 1.1.91 1.79 1.108.18.502.683.818 1.219.765.535-.052.966-.459 1.044-.986.078-.527-.217-1.038-.715-1.24-.498-.203-1.071-.043-1.39.387-.44-.152-.836-.412-1.15-.754-.147-.161-.207-.384-.159-.596l1.867-8.132c.297-1.3 1.465-2.223 2.812-2.223 1.347 0 2.514.923 2.811 2.223l1.861 8.132c.048.212-.01.435-.159.596-.313.342-.709.602-1.15.754-.32-.428-.894-.585-1.391-.38-.497.204-.79.717-.71 1.244.082.527.514.931 1.05.98.536.05 1.038-.267 1.216-.77.688-.199 1.306-.582 1.787-1.108.384-.42.537-1 .41-1.553l-1.86-8.132c-.365-1.594-1.69-2.797-3.326-3.02v-2.246l2.81-1.13zm15.081 0l3.624 1.458v4.928c-2.228.283-3.85 2.23-3.707 4.448.144 2.218 2.004 3.944 4.25 3.944 2.247 0 4.107-1.726 4.25-3.944.144-2.218-1.478-4.165-3.707-4.448v-4.492l4.535 1.826c1.999.804 3.306 2.727 3.306 4.861V52.81c-.001.503-.414.91-.922.91h-18.63V39.392l7.001-6.858zm4.17 7.331c.857 0 1.679.345 2.276.954.598.609.92 1.431.896 2.28.043 1.15-.553 2.23-1.552 2.817-1 .587-2.244.587-3.244 0s-1.595-1.668-1.552-2.817c-.025-.85.299-1.672.897-2.281.598-.61 1.42-.953 2.278-.953h0z" transform="translate(-440 -378) translate(440 378) translate(.317 .334)"/>
                </g>
            </g>
        </g>
    </g>
</svg>
