<svg xmlns="http://www.w3.org/2000/svg" width="107" height="139" viewBox="0 0 107 139">
    <g fill="none" fill-rule="evenodd">
        <g stroke="#7063FF">
            <g>
                <path stroke-width="2" d="M51 96.464L34.123 135 22.77 113.822 0 119.67 14.224 86M52 97.179L68.265 135 79.822 113.823 103 119.67 88.521 86" transform="translate(-550 -576) translate(552 577)"/>
                <path stroke-width="2" d="M96.92 51l4.462-5.79c.499-.648.71-1.473.581-2.282-.128-.808-.583-1.527-1.258-1.99l-6.032-4.128 2.452-6.885c.275-.771.22-1.62-.15-2.35-.372-.728-1.028-1.272-1.812-1.503l-7.014-2.063.206-7.307c.024-.817-.29-1.609-.87-2.187-.578-.578-1.38-.89-2.186-.87l-7.308.206-2.063-7.014c-.23-.784-.775-1.44-1.503-1.81-.728-.372-1.577-.426-2.349-.153L65.19 7.328 61.06 1.295C60.6.621 59.88.165 59.071.038c-.81-.13-1.632.081-2.28.581L51 5.081 45.21.619c-.648-.499-1.473-.712-2.282-.581-.808.127-1.527.582-1.989 1.257l-4.13 6.033-6.885-2.454c-.77-.273-1.62-.219-2.35.152-.729.372-1.272 1.027-1.504 1.811l-2.06 7.014-7.308-.206c-.809-.021-1.609.292-2.188.87-.578.578-.893 1.37-.87 2.187l.207 7.307-7.014 2.063c-.785.23-1.44.775-1.813 1.503-.37.73-.425 1.579-.15 2.35l2.454 6.885-6.033 4.129C.62 41.4.165 42.12.036 42.929c-.127.808.084 1.632.583 2.28L5.08 51 .62 56.791c-.5.649-.71 1.473-.583 2.282.129.808.584 1.527 1.26 1.99l6.032 4.128-2.455 6.885c-.274.771-.22 1.62.151 2.35.372.728 1.028 1.272 1.813 1.503l7.014 2.063-.207 7.307c-.023.817.292 1.608.87 2.187.578.578 1.34.887 2.188.87l7.308-.206 2.06 7.014c.232.784.775 1.44 1.504 1.81.73.372 1.58.427 2.35.153l6.886-2.454 4.129 6.033c.462.674 1.181 1.13 1.989 1.257.811.128 1.634-.082 2.282-.581L51 96.92l5.79 4.462c.524.403 1.163.618 1.816.618.155 0 .311-.012.466-.037.808-.128 1.527-.583 1.99-1.258l4.128-6.032 6.886 2.454c.772.274 1.621.22 2.349-.153.728-.37 1.273-1.026 1.503-1.81l2.063-7.014 7.307.206c.847.026 1.61-.292 2.187-.87.58-.579.894-1.37.87-2.187l-.206-7.307 7.014-2.063c.784-.231 1.44-.775 1.811-1.503.372-.73.426-1.579.151-2.35l-2.452-6.885 6.032-4.129c.675-.462 1.13-1.181 1.258-1.99.128-.808-.082-1.633-.581-2.28L96.919 51z" transform="translate(-550 -576) translate(552 577)"/>
                <path stroke-linecap="round" stroke-linejoin="round" stroke-width="7" d="M29 55.03L43.487 67 68 34" transform="translate(-550 -576) translate(552 577)"/>
            </g>
        </g>
    </g>
</svg>
