<svg xmlns="http://www.w3.org/2000/svg" width="61" height="56" viewBox="0 0 61 56">
    <g fill="none" fill-rule="evenodd">
        <g fill="#7063FF" fill-rule="nonzero">
            <g>
                <path d="M18.24 29H6.76c-.42 0-.76.345-.76.77v5.46c0 .425.34.77.76.77h11.48c.42 0 .76-.345.76-.77v-5.46c0-.425-.34-.77-.76-.77zm-.761 5.46H7.52v-3.92h9.958v3.92zM18.24 37H6.76c-.42 0-.76.345-.76.77v5.46c0 .425.34.77.76.77h11.48c.42 0 .76-.345.76-.77v-5.46c0-.425-.34-.77-.76-.77zm-.761 5.46H7.52v-3.92h9.958v3.92zM18.24 45H6.76c-.42 0-.76.345-.76.77v5.46c0 .425.34.77.76.77h11.48c.42 0 .76-.345.76-.77v-5.46c0-.425-.34-.77-.76-.77zm-.761 5.46H7.52v-3.92h9.958v3.92zM43.24 37H31.76c-.42 0-.76.345-.76.77v5.46c0 .425.34.77.76.77h11.48c.42 0 .76-.345.76-.77v-5.46c0-.425-.34-.77-.76-.77zm-.761 5.46H32.52v-3.92h9.958v3.92zM43.24 45H31.76c-.42 0-.76.345-.76.77v5.46c0 .425.34.77.76.77h11.48c.42 0 .76-.345.76-.77v-5.46c0-.425-.34-.77-.76-.77zm-.761 5.46H32.52v-3.92h9.958v3.92zM33 25.806v-2.612c0-.81-.656-1.466-1.465-1.466h-3.273v-3.262c0-.81-.656-1.466-1.465-1.466h-2.594c-.81 0-1.465.657-1.465 1.466v3.277h-3.273c-.803 0-1.457.647-1.465 1.451v2.597c0 .81.656 1.466 1.465 1.466h3.273v3.277c0 .81.656 1.466 1.465 1.466h2.594c.81 0 1.465-.657 1.465-1.466v-3.262h3.273c.389 0 .761-.154 1.036-.43.275-.274.429-.647.429-1.036zm-1.526-.061H28.21c-.814 0-1.473.66-1.473 1.474v3.269h-2.472v-3.27c-.004-.811-.661-1.469-1.473-1.473h-3.265V23.27h3.265c.812-.004 1.469-.661 1.473-1.474v-3.269h2.472v3.27c0 .813.66 1.473 1.473 1.473h3.265v2.475z" transform="translate(-437 -524) translate(437 524)"/>
                <path d="M60.996 14.03c.118-4.972-2.442-9.618-6.687-12.14-4.246-2.52-9.51-2.52-13.756 0-4.245 2.522-6.805 7.168-6.687 12.14H11.8c-.195.002-.382.077-.524.211L.244 24.784c-.23.218-.306.556-.19.853.115.297.398.493.714.494H2.18v29.09c0 .43.345.779.771.779h44.508c.426 0 .77-.349.77-.779V39.33c1.435-2.079 12.768-18.321 12.768-25.298zM47.458 1.885c6.639.009 12.019 5.442 12.027 12.147 0 5.918-9.475 20.011-12.027 23.694-2.552-3.683-12.02-17.776-12.02-23.694.005-6.704 5.382-12.138 12.02-12.147zm-4.75 31.543v1.277H32.61v-3.956h8.427c.57.935 1.133 1.838 1.673 2.679zM28.393 54.45h-6.376V42.054c.884-.928 2.11-1.446 3.385-1.432 1.137.073 2.205.576 2.991 1.409v12.42zm1.542 0v-12.7c0-.181-.062-.358-.177-.498-1.07-1.29-2.616-2.08-4.28-2.188-1.856-.052-3.637.743-4.849 2.165-.115.14-.177.316-.177.498V54.42H3.721V26.131H16.62c.426 0 .771-.349.771-.779 0-.43-.345-.778-.77-.778H2.741l9.398-8.955h21.88c.455 2.492 1.827 5.7 3.516 8.955h-2.413c-.426 0-.771.348-.771.778 0 .43.345.779.77.779h3.239c.57 1.028 1.156 2.056 1.742 3.06h-8.265c-.426 0-.77.349-.77.779v5.52c0 .43.344.779.77.779h11.634c.333-.005.625-.224.725-.545 1.195 1.799 2.112 3.115 2.46 3.605v15.114l-16.723.007z" transform="translate(-437 -524) translate(437 524)"/>
                <path d="M57 13c0-3.643-2.196-6.927-5.563-8.318-3.367-1.39-7.24-.615-9.812 1.966-2.571 2.58-3.334 6.456-1.93 9.818 1.402 3.362 4.694 5.547 8.337 5.534 4.956-.022 8.964-4.044 8.968-9zm-16.412 0c0-4.09 3.312-7.407 7.402-7.412 4.09-.006 7.411 3.301 7.423 7.391.011 4.09-3.291 7.416-7.381 7.434-1.97.006-3.863-.772-5.26-2.163-1.396-1.39-2.182-3.28-2.184-5.25z" transform="translate(-437 -524) translate(437 524)"/>
            </g>
        </g>
    </g>
</svg>
